HIERARCHY
ROOT ui
{
	 OFFSET 0 0 0
	 CHANNELS 3 XPosition YPosition Z Position
	 EndSite
	 {
	 OFFSET 0 -1 0
	 }
}
ROOT li
{
	 OFFSET 0 0 0
	 CHANNELS 3 XPosition YPosition Z Position
	 EndSite
	 {
	 OFFSET 0 -1 0
	 }
}
ROOT ul
{
	 OFFSET 0 0 0
	 CHANNELS 3 XPosition YPosition Z Position
	 EndSite
	 {
	 OFFSET 0 -1 0
	 }
}
ROOT ll
{
	 OFFSET 0 0 0
	 CHANNELS 3 XPosition YPosition Z Position
	 EndSite
	 {
	 OFFSET 0 -1 0
	 }
}
ROOT tt
{
	 OFFSET 0 0 0
	 CHANNELS 3 XPosition YPosition Z Position
	 EndSite
	 {
	 OFFSET 0 -1 0
	 }
}
ROOT tb
{
	 OFFSET 0 0 0
	 CHANNELS 3 XPosition YPosition Z Position
	 EndSite
	 {
	 OFFSET 0 -1 0
	 }
}
ROOT td
{
	 OFFSET 0 0 0
	 CHANNELS 3 XPosition YPosition Z Position
	 EndSite
	 {
	 OFFSET 0 -1 0
	 }
}
ROOT v
{
	 OFFSET 0 0 0
	 CHANNELS 3 XPosition YPosition Z Position
	 EndSite
	 {
	 OFFSET 0 -1 0
	 }
}
ROOT bn
{
	 OFFSET 0 0 0
	 CHANNELS 3 XPosition YPosition Z Position
	 EndSite
	 {
	 OFFSET 0 -1 0
	 }
}
MOTION
Frames: 13
Frame Time: 0.002
0.005690969944000244	-0.0011436860561370849	0		0.45909320068359377	-2.50964404296875	0		-1.1631888427734376	-0.27402813720703123	0		-0.772659423828125	-2.555638671875	0		1.931266357421875	-1.565884033203125	0		3.4226787109375	-1.039429443359375	0		4.64110546875	-0.3651908874511719	0		5.96378759765625	0.4716234130859375	0		-0.19008309936523438	5.88212060546875	0		
0.006050923824310303	-0.0010872809886932372	0		0.45944961547851565	-2.50958837890625	0		-1.162829345703125	-0.27397006225585935	0		-0.70042041015625	-2.56457470703125	0		1.9467469482421875	-1.557038330078125	0		3.445883056640625	-1.0506944580078126	0		4.65604931640625	-0.3953453674316406	0		5.9551494140625	0.471795654296875	0		-0.1556351776123047	5.88770751953125	0		
-0.02363824462890625	-0.003586824893951416	0		0.43386376953125	-2.504145263671875	0		-1.1584395751953125	-0.2709366760253906	0		-0.773988037109375	-2.557465576171875	0		1.91427490234375	-1.5435032958984376	0		3.44699462890625	-1.067630126953125	0		4.641330078125	-0.4000645446777344	0		5.95938916015625	0.463810791015625	0		-0.1873772430419922	5.880236328125	0		
0.0067283868789672855	-8.86322021484375E-4	0		0.46520611572265624	-2.502460205078125	0		-1.1581126708984375	-0.270816650390625	0		-0.6977330932617187	-2.562396728515625	0		1.9128040771484376	-1.5283697509765626	0		3.457400146484375	-1.06166796875	0		4.6536416015625	-0.4011342468261719	0		5.968939453125	0.47977542114257815	0		-0.151972900390625	5.8838681640625	0		
-0.015930480003356933	0.0025764760971069335	0		0.4695442199707031	-2.498373291015625	0		-1.1525960693359374	-0.25473550415039065	0		-0.7713602294921875	-2.555225341796875	0		1.924382080078125	-1.5073895263671875	0		3.435362060546875	-1.085236083984375	0		4.64270263671875	-0.4178619384765625	0		5.973349609375	0.48783050537109374	0		-0.18570773315429687	5.87948486328125	0		
0.007285134792327881	-5.653939843177795E-4	0		0.4947135009765625	-2.50354638671875	0		-1.15450439453125	-0.2665223388671875	0		-0.7101256713867188	-2.555887451171875	0		1.917741455078125	-1.4991319580078124	0		3.46152783203125	-1.0914447021484375	0		4.63887646484375	-0.42366455078125	0		5.97361279296875	0.487962158203125	0		-0.1503529815673828	5.883177734375	0		
-0.019497474670410155	1.5300000086426735E-5	0		0.46794927978515627	-2.499970458984375	0		-1.1461959228515626	-0.25941598510742186	0		-0.7119619750976562	-2.55764599609375	0		1.9162470703125	-1.4769169921875	0		3.452553466796875	-1.104143798828125	0		4.64879541015625	-0.44463671875	0		5.964611328125	0.4722401428222656	0		-0.18416360473632812	5.877857421875	0		
0.0036103200912475587	-0.004063788890838623	0		0.4701141662597656	-2.4977646484375	0		-1.1320208740234374	-0.25835824584960937	0		-0.735864501953125	-2.56006640625	0		1.919437255859375	-1.473741455078125	0		3.449637451171875	-1.108901611328125	0		4.63668017578125	-0.46428182983398436	0		5.9740029296875	0.48828594970703126	0		-0.18197402954101563	5.87507080078125	0		
-0.015178140640258788	0.0034703691005706786	0		0.44933438110351565	-2.487209228515625	0		-1.179837646484375	-0.25240675354003905	0		-0.7666580200195312	-2.550356201171875	0		1.917724609375	-1.459468994140625	0		3.462512451171875	-1.1248546142578124	0		4.63678662109375	-0.4640718994140625	0		5.98288525390625	0.47135498046875	0		-0.16466018676757813	5.88410791015625	0		
0.01087769603729248	0.003414621114730835	0		0.5053074645996094	-2.490688232421875	0		-1.107568115234375	-0.23708464050292968	0		-0.7646112670898437	-2.5480673828125	0		1.8991370849609375	-1.4319324951171875	0		3.444666259765625	-1.1163538818359375	0		4.643740234375	-0.4709346923828125	0		5.9741875	0.4886912841796875	0		-0.14658268737792968	5.879166015625	0		
-0.019157791137695314	0.0011705529689788818	0		0.4742424011230469	-2.49192724609375	0		-1.1845477294921876	-0.23465638732910157	0		-0.76668017578125	-2.549687255859375	0		1.9270848388671875	-1.434015625	0		3.44517724609375	-1.150085693359375	0		4.64448486328125	-0.48868905639648436	0		5.9690888671875	0.48099609375	0		-0.18152896118164064	5.87599462890625	0		
0.007788165092468262	0.0011681050062179565	0		0.5010975952148438	-2.49493896484375	0		-1.171744140625	-0.2444401092529297	0		-0.76678173828125	-2.54929931640625	0		1.9170618896484375	-1.4295418701171876	0		3.445103271484375	-1.149780517578125	0		4.64621484375	-0.5034338073730469	0		5.969046875	0.481251708984375	0		-0.17949293518066406	5.87434326171875	0		
-0.019313831329345704	0.0019507670402526855	0		0.4739827880859375	-2.49116748046875	0		-1.1578416748046876	-0.24320323181152342	0		-0.7540270385742187	-2.555056640625	0		1.90619189453125	-1.41002587890625	0		3.46781787109375	-1.1607689208984375	0		4.6399462890625	-0.5140443115234375	0		5.96895263671875	0.48152755737304687	0		-0.17849699401855468	5.87273974609375	0		
